<svg id="_2" data-name="2" xmlns="http://www.w3.org/2000/svg" xmlns:xlink="http://www.w3.org/1999/xlink" width="73" height="78.833" viewBox="0 0 73 78.833">
  <defs>
    <linearGradient id="linear-gradient" x1="0.095" x2="1" y2="1" gradientUnits="objectBoundingBox">
      <stop offset="0" stop-color="#22577a"/>
      <stop offset="1" stop-color="#38a3a5"/>
    </linearGradient>
    <filter id="Path_43" x="3.333" y="0.167" width="66.333" height="78.667" filterUnits="userSpaceOnUse">
      <feOffset dy="3" input="SourceAlpha"/>
      <feGaussianBlur stdDeviation="3" result="blur"/>
      <feFlood flood-opacity="0.161"/>
      <feComposite operator="in" in2="blur"/>
      <feComposite in="SourceGraphic"/>
    </filter>
  </defs>
  <path id="Path_42" data-name="Path 42" d="M0,0H73V73H0Z" fill="none"/>
  <g transform="matrix(1, 0, 0, 1, 0, 0)" filter="url(#Path_43)">
    <path id="Path_43-2" data-name="Path 43" d="M34.208,2H10.042A6.046,6.046,0,0,0,4.03,8.067L4,56.6a6.046,6.046,0,0,0,6.011,6.067h36.28A6.072,6.072,0,0,0,52.333,56.6V20.2ZM40.25,44.467H31.188v9.1H25.146v-9.1H16.083V38.4h9.062V29.3h6.042v9.1H40.25ZM31.188,23.233V6.55L47.8,23.233Z" transform="translate(8.33 4.17)" fill="url(#linear-gradient)"/>
  </g>
</svg>
