<svg xmlns="http://www.w3.org/2000/svg" xmlns:xlink="http://www.w3.org/1999/xlink" width="76.208" height="76.208" viewBox="0 0 76.208 76.208">
  <defs>
    <linearGradient id="linear-gradient" x1="0.087" x2="1" y2="1" gradientUnits="objectBoundingBox">
      <stop offset="0" stop-color="#22577a"/>
      <stop offset="1" stop-color="#38a3a5"/>
    </linearGradient>
    <filter id="Path_39" x="0" y="7.875" width="68.333" height="68.333" filterUnits="userSpaceOnUse">
      <feOffset dy="3" input="SourceAlpha"/>
      <feGaussianBlur stdDeviation="3" result="blur"/>
      <feFlood flood-opacity="0.161"/>
      <feComposite operator="in" in2="blur"/>
      <feComposite in="SourceGraphic"/>
    </filter>
    <filter id="Path_40" x="34.542" y="0" width="41.667" height="41.65" filterUnits="userSpaceOnUse">
      <feOffset dy="3" input="SourceAlpha"/>
      <feGaussianBlur stdDeviation="3" result="blur-2"/>
      <feFlood flood-opacity="0.161"/>
      <feComposite operator="in" in2="blur-2"/>
      <feComposite in="SourceGraphic"/>
    </filter>
    <filter id="Rectangle_10" x="12.561" y="21.923" width="41.667" height="24" filterUnits="userSpaceOnUse">
      <feOffset dy="3" input="SourceAlpha"/>
      <feGaussianBlur stdDeviation="3" result="blur-3"/>
      <feFlood flood-opacity="0.161"/>
      <feComposite operator="in" in2="blur-3"/>
      <feComposite in="SourceGraphic"/>
    </filter>
    <filter id="Path_41" x="12.561" y="30.76" width="41.667" height="23.917" filterUnits="userSpaceOnUse">
      <feOffset dy="3" input="SourceAlpha"/>
      <feGaussianBlur stdDeviation="3" result="blur-4"/>
      <feFlood flood-opacity="0.161"/>
      <feComposite operator="in" in2="blur-4"/>
      <feComposite in="SourceGraphic"/>
    </filter>
    <filter id="Rectangle_11" x="12.561" y="39.6" width="41.667" height="24" filterUnits="userSpaceOnUse">
      <feOffset dy="3" input="SourceAlpha"/>
      <feGaussianBlur stdDeviation="3" result="blur-5"/>
      <feFlood flood-opacity="0.161"/>
      <feComposite operator="in" in2="blur-5"/>
      <feComposite in="SourceGraphic"/>
    </filter>
  </defs>
  <g id="_3" data-name="3" transform="translate(-75.875 -319.917)">
    <g id="Group_2336" data-name="Group 2336" transform="translate(76 320)">
      <g id="post_add_black_24dp">
        <g id="Group_19" data-name="Group 19">
          <rect id="Rectangle_9" data-name="Rectangle 9" width="73" height="73" fill="none"/>
        </g>
        <g id="Group_2338" data-name="Group 2338" transform="translate(8.875 5.917)">
          <g id="Group_21" data-name="Group 21" transform="translate(0 0)">
            <g id="Group_20" data-name="Group 20">
              <g id="Group_2339" data-name="Group 2339">
                <g transform="matrix(1, 0, 0, 1, -9, -6)" filter="url(#Path_39)">
                  <path id="Path_39-2" data-name="Path 39" d="M47.042,49.734H9.292V11.292H31.312V5H9.292A6.31,6.31,0,0,0,3,11.292v37.75a6.31,6.31,0,0,0,6.292,6.292h37.75a6.31,6.31,0,0,0,6.292-6.292V27.021H47.042Z" transform="translate(6 8.87)" fill="url(#linear-gradient)"/>
                </g>
                <g transform="matrix(1, 0, 0, 1, -9, -6)" filter="url(#Path_40)">
                  <path id="Path_40-2" data-name="Path 40" d="M28.792,2H22.875v8.875H14c.03.03,0,5.917,0,5.917h8.875v8.845c.03.03,5.917,0,5.917,0V16.792h8.875V10.875H28.792Z" transform="translate(29.54 4)" fill="url(#linear-gradient)"/>
                </g>
              </g>
              <g transform="matrix(1, 0, 0, 1, -9, -6)" filter="url(#Rectangle_10)">
                <rect id="Rectangle_10-2" data-name="Rectangle 10" width="23.667" height="6" transform="translate(21.56 27.92)" fill="url(#linear-gradient)"/>
              </g>
              <g transform="matrix(1, 0, 0, 1, -9, -6)" filter="url(#Path_41)">
                <path id="Path_41-2" data-name="Path 41" d="M7,12v5.917H30.667V12H7Z" transform="translate(14.56 24.76)" fill="url(#linear-gradient)"/>
              </g>
              <g transform="matrix(1, 0, 0, 1, -9, -6)" filter="url(#Rectangle_11)">
                <rect id="Rectangle_11-2" data-name="Rectangle 11" width="23.667" height="6" transform="translate(21.56 45.6)" fill="url(#linear-gradient)"/>
              </g>
            </g>
          </g>
        </g>
      </g>
    </g>
  </g>
</svg>
